<svg width="47" height="62" viewBox="0 0 47 62" fill="none" xmlns="http://www.w3.org/2000/svg">
<path d="M1.71356 11.6008C1.71356 5.19492 6.96434 0 13.4391 0H33.561C40.0357 0 45.2865 5.19492 45.2865 11.6008C45.2865 15.6574 43.1813 19.2297 39.9867 21.3004C43.1813 23.3711 45.2865 26.9434 45.2865 31C45.2865 37.4059 40.0357 42.6008 33.561 42.6008H33.3039C30.2685 42.6008 27.5024 41.4625 25.4216 39.5855V50.2781C25.4216 56.7688 20.0362 62 13.5003 62C7.03778 62 1.71356 56.8172 1.71356 50.3992C1.71356 46.3426 3.81877 42.7703 7.00106 40.6996C3.81877 38.6289 1.71356 35.0566 1.71356 31C1.71356 26.9434 3.81877 23.3711 7.00106 21.3004C3.81877 19.2297 1.71356 15.6574 1.71356 11.6008ZM21.5784 23.2016H13.4391C9.08179 23.2016 5.55679 26.6891 5.55679 31C5.55679 35.2867 9.05731 38.7742 13.3901 38.7984C13.4024 38.7984 13.4268 38.7984 13.4391 38.7984H21.5784V23.2016ZM25.4216 31C25.4216 35.3109 28.9466 38.7984 33.3039 38.7984H33.561C37.906 38.7984 41.4433 35.3109 41.4433 31C41.4433 26.6891 37.906 23.2016 33.561 23.2016H33.3039C28.9466 23.2016 25.4216 26.6891 25.4216 31ZM13.4391 42.6008C13.4268 42.6008 13.4024 42.6008 13.3901 42.6008C9.05731 42.625 5.55679 46.1125 5.55679 50.3992C5.55679 54.698 9.13075 58.1977 13.5003 58.1977C17.9433 58.1977 21.5784 54.6375 21.5784 50.2781V42.6008H13.4391ZM13.4391 3.80234C9.08179 3.80234 5.55679 7.28984 5.55679 11.6008C5.55679 15.9117 9.08179 19.3992 13.4391 19.3992H21.5784V3.80234H13.4391ZM25.4216 19.3992H33.561C37.906 19.3992 41.4433 15.9117 41.4433 11.6008C41.4433 7.28984 37.906 3.80234 33.561 3.80234H25.4216V19.3992Z" fill="white"/>
</svg>
