<svg width="62" height="62" viewBox="0 0 62 62" fill="none" xmlns="http://www.w3.org/2000/svg">
<path d="M26.1926 19.1812H16.5898C11.7461 17.9098 0.787109 18.2367 0.787109 28.2391C0.787109 31.884 2.60352 34.4391 5.02539 35.6258C1.98594 38.4109 0.544922 39.7309 0.544922 41.5836C0.544922 42.9156 1.08984 44.1387 2.7125 44.8289C0.980859 46.4516 0 47.6383 0 49.8543C0 53.7414 3.40273 56.0059 12.3031 56.0059C20.8766 56.0059 25.8414 52.809 25.8414 47.1418C25.8414 40.0336 20.368 40.3 7.48359 39.5129L9.10625 36.8973C12.4121 37.8176 23.4801 38.1082 23.4801 28.675C23.4801 26.4105 22.5477 24.8363 21.6637 23.698L26.1926 23.359V19.1812ZM18.5152 48.4738C18.5152 52.3609 5.8125 52.3609 5.8125 48.7645C5.8125 47.7836 6.4543 46.948 7.09609 46.1609C16.5051 46.8027 18.5152 46.5727 18.5152 48.4738ZM12.3637 32.1746C5.96992 32.1746 6.24844 23.5527 12.509 23.5527C18.5031 23.5527 18.6605 32.1746 12.3637 32.1746ZM28.5055 44.3445V40.4574C31.7508 40.0094 31.7992 40.2152 31.7992 39.1254V24.6547C31.7992 23.6254 31.5449 23.7586 28.5055 22.6809L29.0504 18.6969H39.2344V39.1254C39.2344 39.9125 39.2828 40.0094 40.0215 40.1063L42.5281 40.4453V44.3324L28.5055 44.3445ZM34.8629 14.7613C32.0535 14.7613 30.4309 13.1387 30.4309 10.3293C30.4309 7.51992 32.0535 5.99414 34.8629 5.99414C37.7207 5.99414 39.3434 7.51992 39.3434 10.3293C39.3434 13.1387 37.7207 14.7613 34.8629 14.7613ZM62 42.4434C59.8809 43.4727 56.7809 44.4172 53.9715 44.4172C48.1105 44.4172 45.8945 42.0559 45.8945 36.4855V23.5891C45.8945 22.9352 46.0277 23.0926 42.0559 23.0926V18.709C46.391 18.2125 48.1105 16.0449 48.6555 10.6805H53.3297C53.3297 18.6484 53.1723 18.1641 53.7293 18.1641H60.668V23.0926H53.3297V34.8629C53.3297 35.6984 52.7363 41.0871 60.668 38.1082L62 42.4434Z" fill="white"/>
</svg>
