<svg width="56" height="64" viewBox="0 0 56 64" fill="none" xmlns="http://www.w3.org/2000/svg">
<path d="M0 4V60H56V4H0ZM30.475 47.675C30.475 53.125 27.275 55.6125 22.6125 55.6125C18.4 55.6125 15.9625 53.4375 14.7125 50.8L19 48.2125C19.825 49.675 20.575 50.9125 22.3875 50.9125C24.1125 50.9125 25.2125 50.2375 25.2125 47.6V29.7125H30.475V47.675ZM42.925 55.6125C38.0375 55.6125 34.875 53.2875 33.3375 50.2375L37.625 47.7625C38.75 49.6 40.225 50.9625 42.8125 50.9625C44.9875 50.9625 46.3875 49.875 46.3875 48.3625C46.3875 46.5625 44.9625 45.925 42.55 44.8625L41.2375 44.3C37.4375 42.6875 34.925 40.65 34.925 36.3625C34.925 32.4125 37.9375 29.4125 42.625 29.4125C45.975 29.4125 48.375 30.575 50.1 33.625L46 36.25C45.1 34.6375 44.125 34 42.6125 34C41.075 34 40.1 34.975 40.1 36.25C40.1 37.825 41.075 38.4625 43.3375 39.45L44.65 40.0125C49.125 41.925 51.6375 43.8875 51.6375 48.2875C51.6375 53.0125 47.9125 55.6125 42.925 55.6125Z" fill="white"/>
</svg>
