<svg width="59" height="67" viewBox="0 0 59 67" fill="none" xmlns="http://www.w3.org/2000/svg">
<g clip-path="url(#clip0_60_147)">
<path d="M29.5 66.4766C28.6176 66.4766 27.7221 66.2411 26.9451 65.7961L18.8194 61.0198C17.6078 60.3393 18.2004 60.1038 18.5955 59.9729C20.2154 59.4102 20.5446 59.2924 22.2698 58.311C22.4542 58.2063 22.6913 58.2456 22.8756 58.3633L29.1181 62.0405C29.3419 62.1713 29.658 62.1713 29.8687 62.0405L54.1931 48.0909C54.4169 47.96 54.5618 47.6983 54.5618 47.4366V19.5374C54.5618 19.2625 54.4169 19.0139 54.1799 18.87L29.8687 4.93345C29.6448 4.80259 29.3419 4.80259 29.1181 4.93345L4.82006 18.8831C4.58301 19.0139 4.43814 19.2756 4.43814 19.5504V47.4366C4.43814 47.6983 4.58301 47.96 4.82006 48.0778L11.4839 51.8989C15.1056 53.6917 17.3181 51.5848 17.3181 49.4518V21.919C17.3181 21.5264 17.6341 21.2254 18.0292 21.2254H21.1109C21.4928 21.2254 21.8221 21.5264 21.8221 21.919V49.4649C21.8221 54.2543 19.1881 57.0024 14.6183 57.0024C13.2091 57.0024 12.1029 57.0024 9.02118 55.4844L2.64707 51.8335C1.06672 50.9305 0.0921631 49.2424 0.0921631 47.4235V19.5374C0.0921631 17.7315 1.06672 16.0303 2.64707 15.1274L26.9451 1.17778C28.4859 0.314111 30.5272 0.314111 32.0549 1.17778L56.3792 15.1405C57.9596 16.0434 58.9341 17.7315 58.9341 19.5504V47.4366C58.9341 49.2424 57.9596 50.9305 56.3792 51.8465L32.0549 65.7961C31.2779 66.2411 30.3955 66.4766 29.5 66.4766ZM49.1359 38.9831C49.1359 33.7618 45.5801 32.3747 38.1129 31.3932C30.5535 30.3987 29.7897 29.8883 29.7897 28.1348C29.7897 26.6823 30.435 24.7456 36.0321 24.7456C41.0234 24.7456 42.8672 25.8186 43.631 29.1686C43.6968 29.4827 43.9866 29.7182 44.3158 29.7182H47.4765C47.6741 29.7182 47.8585 29.6397 47.9901 29.4958C48.1218 29.3518 48.1877 29.1555 48.1745 28.9592C47.6872 23.1883 43.8285 20.5057 36.0321 20.5057C29.0917 20.5057 24.9564 23.4108 24.9564 28.2918C24.9564 33.5786 29.0785 35.0442 35.7292 35.6985C43.6968 36.4706 44.3158 37.6352 44.3158 39.1924C44.3158 41.8881 42.1297 43.0397 37.0067 43.0397C30.5667 43.0397 29.1576 41.4301 28.6835 38.2502C28.6308 37.91 28.341 37.6614 27.9855 37.6614H24.8379C24.4428 37.6614 24.1399 37.9754 24.1399 38.3549C24.1399 42.4247 26.3656 47.2795 37.0198 47.2795C44.7109 47.2665 49.1359 44.2436 49.1359 38.9831Z" fill="white"/>
</g>
<defs>
<clipPath id="clip0_60_147">
<rect width="59" height="67" fill="white"/>
</clipPath>
</defs>
</svg>
