<svg width="81" height="65" viewBox="0 0 81 65" fill="none" xmlns="http://www.w3.org/2000/svg">
<path d="M40.5 13.2666C62.1928 13.2666 78.8738 22.4326 78.8738 32.5C78.8738 42.5674 62.1802 51.7334 40.5 51.7334C18.8072 51.7334 2.12625 42.5674 2.12625 32.5C2.12625 22.4326 18.8198 13.2666 40.5 13.2666ZM40.5 11.1338C18.1364 11.1338 0 20.6934 0 32.5C0 44.3066 18.1364 53.8662 40.5 53.8662C62.8636 53.8662 81 44.3066 81 32.5C81 20.6934 62.8636 11.1338 40.5 11.1338ZM27.6159 30.7861C26.6161 35.9277 23.085 35.3945 18.7439 35.3945L20.4778 26.4316C25.2872 26.4316 28.5525 25.9111 27.6159 30.7861ZM12.3272 44.4717H16.972L18.0731 38.7842C23.2748 38.7842 26.5022 39.165 29.4891 36.3594C32.7923 33.3125 33.653 27.8916 31.2989 25.1748C30.0713 23.7529 28.0969 23.0547 25.4138 23.0547H16.4658L12.3272 44.4717ZM35.8298 17.3545H40.4494L39.3483 23.042C43.335 23.042 47.0306 22.75 48.8152 24.4004C50.6883 26.127 49.7897 28.3359 47.7647 38.7588H43.0819C45.0309 28.6787 45.398 27.8408 44.6892 27.0791C44.0058 26.3428 42.4491 26.4951 38.6902 26.4951L36.3108 38.7588H31.6912L35.8298 17.3545ZM63.9141 30.7861C62.9016 36.0039 59.2692 35.3945 55.042 35.3945L56.7759 26.4316C61.6106 26.4316 64.8506 25.9111 63.9141 30.7861ZM48.6253 44.4717H53.2828L54.3839 38.7842C59.8514 38.7842 62.8763 39.1016 65.7999 36.3594C69.1031 33.3125 69.9638 27.8916 67.6097 25.1748C66.382 23.7529 64.4077 23.0547 61.7245 23.0547H52.7766L48.6253 44.4717Z" fill="white"/>
</svg>
