<svg width="78" height="63" viewBox="0 0 78 63" fill="none" xmlns="http://www.w3.org/2000/svg">
<g clip-path="url(#clip0_60_138)">
<path d="M36.7819 46.6224C36.7087 46.7578 36.7453 46.6963 36.7819 46.6224V46.6224ZM67.1409 35.9174C64.6897 35.9167 62.2712 36.4851 60.0722 37.5785C59.3531 36.1142 58.6097 34.8346 58.4878 33.8748C58.3416 32.7551 58.1831 32.0906 58.3537 30.7617C58.5244 29.4328 59.2922 27.5502 59.28 27.4148C59.2678 27.2795 59.1094 26.6027 57.5372 26.5904C55.965 26.5781 54.6122 26.898 54.4537 27.3164C54.1761 28.0809 53.96 28.8669 53.8078 29.6666C53.5275 31.1062 50.6634 36.2496 49.0425 38.932C48.5062 37.8861 48.0553 36.9633 47.9578 36.225C47.8116 35.1053 47.6531 34.4408 47.8237 33.1119C47.9944 31.783 48.7622 29.9004 48.75 29.765C48.7378 29.6297 48.5794 28.9529 47.0072 28.9406C45.435 28.9283 44.0822 29.2482 43.9237 29.6666C43.7653 30.0849 43.5947 31.0693 43.2778 32.0168C42.9609 32.9642 39.1462 41.5283 38.1469 43.7555C37.635 44.8875 37.1962 45.798 36.8794 46.4133C36.8306 46.5117 36.7941 46.5732 36.7697 46.6224C36.8063 46.5609 36.8306 46.4994 36.8306 46.524C36.5625 47.0531 36.4041 47.3484 36.4041 47.3484V47.3607C36.1969 47.7545 35.9653 48.1113 35.8556 48.1113C35.7825 48.1113 35.6241 47.0777 35.8922 45.6627C36.465 42.6849 37.8178 38.0584 37.8056 37.8984C37.7934 37.8123 38.0616 37.0125 36.9159 36.5818C35.8069 36.1758 35.4047 36.8525 35.3072 36.8525C35.2097 36.8525 35.1366 37.0986 35.1366 37.0986C35.1366 37.0986 36.3675 31.8814 32.7722 31.8814C30.5297 31.8814 27.4097 34.367 25.8741 36.6187C24.9112 37.1478 22.8272 38.2922 20.6334 39.5103C19.7925 39.9779 18.9272 40.4578 18.1106 40.9131C18.0497 40.8515 18.0009 40.79 17.94 40.7285C13.5769 36.0281 5.52093 32.7058 5.86218 26.3935C5.98406 24.0926 6.77624 18.051 21.3525 10.7174C33.2962 4.71268 42.8512 6.36151 44.4844 10.0283C46.8487 15.2578 39.3778 24.9908 26.9709 26.3935C22.2422 26.9226 19.7559 25.0769 19.1344 24.3879C18.4884 23.6619 18.3909 23.625 18.1472 23.7603C17.745 23.9818 18.0009 24.6217 18.1472 25.0031C18.5128 25.9752 20.0362 27.6978 22.6322 28.5592C24.9112 29.3098 30.4566 29.7281 37.1597 27.1072C44.6916 24.1787 50.5537 16.0207 48.8353 9.19159C47.1047 2.25174 35.7094 -0.0246235 24.9356 3.83905C18.5128 6.14003 11.5659 9.7576 6.56906 14.4703C0.633744 20.0812 -0.316881 24.9662 0.0731189 27.0088C1.46249 34.2562 11.3587 38.9812 15.3197 42.4758C15.1247 42.5865 14.9419 42.6849 14.7712 42.7834C12.7847 43.7801 5.24062 47.7668 3.35156 51.975C1.21874 56.7492 3.70499 60.1699 5.33812 60.6375C10.4325 62.0648 15.6487 59.4931 18.4519 55.2726C21.255 51.0521 20.9137 45.5396 19.6219 43.0295C19.6097 42.9926 19.5853 42.968 19.5731 42.931C20.085 42.6234 20.6091 42.3158 21.1331 42.0082C22.1447 41.4053 23.1319 40.8515 23.9972 40.3717C23.5097 41.7006 23.1562 43.3002 22.9734 45.6135C22.7541 48.3205 23.8631 51.8273 25.3012 53.2055C25.935 53.8084 26.7028 53.8207 27.1781 53.8207C28.86 53.8207 29.6156 52.418 30.4566 50.7445C31.4925 48.7019 32.4066 46.3271 32.4066 46.3271C32.4066 46.3271 31.2609 52.7502 34.3931 52.7502C35.5387 52.7502 36.6844 51.2613 37.1963 50.4984V50.5107C37.1963 50.5107 37.2206 50.4615 37.2816 50.3631C37.4034 50.1785 37.4644 50.0678 37.4644 50.0678V50.0308C37.9275 49.231 38.9391 47.3976 40.4625 44.3707C42.4369 40.4578 44.3259 35.5728 44.3259 35.5728C44.5084 36.6467 44.7608 37.7072 45.0816 38.7474C45.4228 39.9164 46.1419 41.1961 46.7147 42.4389C46.2516 43.0787 45.9712 43.4478 45.9712 43.4478C45.972 43.4573 45.9764 43.4661 45.9834 43.4724C45.6178 43.9646 45.2034 44.4937 44.7769 45.0105C43.2169 46.8808 41.3644 49.0219 41.1206 49.6371C40.8281 50.3631 40.9012 50.9045 41.4619 51.3228C41.8763 51.6428 42.6075 51.692 43.3753 51.6305C44.7769 51.532 45.7641 51.1875 46.2394 50.966C47.1161 50.6489 47.9447 50.2099 48.7012 49.6617C50.2247 48.5297 51.1509 46.9055 51.0656 44.7644C51.0169 43.5832 50.6391 42.4019 50.1759 41.2945C50.31 41.0976 50.4562 40.8885 50.5903 40.6793C52.9912 37.1232 54.8559 33.2226 54.8559 33.2226C55.0383 34.2965 55.2908 35.357 55.6116 36.3972C55.9041 37.3939 56.4769 38.489 57.0009 39.5596C54.7341 41.4176 53.3325 43.5709 52.845 44.9859C51.9431 47.6068 52.65 48.7881 53.9784 49.0588C54.5756 49.1818 55.4287 48.8988 56.0625 48.6281C57.0041 48.3116 57.892 47.851 58.695 47.2623C60.2184 46.1303 61.6931 44.543 61.5956 42.3896C61.5591 41.4176 61.2909 40.4455 60.9375 39.5103C62.8509 38.6982 65.3372 38.2553 68.5059 38.6244C75.2944 39.4242 76.6228 43.7062 76.3669 45.4904C76.1109 47.2746 74.685 48.2713 74.2097 48.5666C73.7344 48.8619 73.5881 48.9726 73.6247 49.1941C73.6856 49.514 73.905 49.5017 74.3072 49.4279C74.8678 49.3295 77.8659 47.976 78 44.666C78.195 40.4824 74.2097 35.8805 67.1531 35.9174H67.1409ZM14.8322 53.7223C12.5897 56.1955 9.44531 57.1306 8.09249 56.3431C6.65437 55.4941 7.22718 51.8519 9.99374 49.2187C11.6756 47.6191 13.845 46.1426 15.2831 45.232C15.6122 45.0351 16.0875 44.7398 16.6725 44.383C16.77 44.3215 16.8187 44.2969 16.8187 44.2969C16.9284 44.223 17.0503 44.1615 17.1722 44.0877C18.1837 47.8283 17.2087 51.126 14.8444 53.7223H14.8322ZM31.2122 42.4758C30.4322 44.4076 28.7869 49.3295 27.7875 49.0711C26.9344 48.8496 26.4103 45.0967 27.6169 41.4053C28.2262 39.5472 29.5181 37.3324 30.2859 36.4711C31.5169 35.0806 32.8697 34.6377 33.1866 35.1914C33.6131 35.9174 31.6997 41.2699 31.2122 42.4758ZM44.7403 48.9973C44.4113 49.1695 44.1066 49.2803 43.9603 49.1941C43.8506 49.1326 44.0944 48.8988 44.0944 48.8988C44.0944 48.8988 45.7884 47.0654 46.4588 46.2287C46.8488 45.7365 47.2997 45.1582 47.7872 44.5183C47.7872 44.5799 47.7994 44.6414 47.7994 44.7152C47.7872 46.9178 45.6909 48.4066 44.7403 48.9973ZM55.1728 46.5978C54.9291 46.4256 54.9656 45.8473 55.7822 44.0508C56.0991 43.3494 56.8303 42.1681 58.0978 41.0361C58.2414 41.4646 58.3195 41.9128 58.3294 42.365C58.3172 45.1336 56.355 46.1672 55.1728 46.5978Z" fill="white"/>
</g>
<defs>
<clipPath id="clip0_60_138">
<rect width="78" height="63" fill="white"/>
</clipPath>
</defs>
</svg>
